<svg width="200" height="200" viewBox="0 0 200 200" fill="none" xmlns="http://www.w3.org/2000/svg">
<circle cx="100" cy="100" r="100" fill="#3E64FF"/>
<path d="M91.6666 112.5H116.167C117.292 111.208 118.958 110.417 120.833 110.417C124.292 110.417 127.083 113.208 127.083 116.667C127.083 120.125 124.292 122.917 120.833 122.917C119 122.917 117.333 122.125 116.167 120.833H99.5833C97.6666 130.333 89.2499 137.5 79.1666 137.5C67.6666 137.5 58.3333 128.167 58.3333 116.667C58.3333 106.583 65.4999 98.1666 74.9999 96.2499V104.875C70.1666 106.583 66.6666 111.25 66.6666 116.667C66.6666 123.542 72.2916 129.167 79.1666 129.167C86.0416 129.167 91.6666 123.542 91.6666 116.667V112.5ZM102.083 66.6666C108.958 66.6666 114.583 72.2916 114.583 79.1666H122.917C122.917 67.6666 113.583 58.3333 102.083 58.3333C90.5833 58.3333 81.2499 67.6666 81.2499 79.1666C81.2499 85.1249 83.7499 90.4583 87.7083 94.2499L77.9166 110.5C75.0833 111.083 72.9166 113.625 72.9166 116.667C72.9166 120.125 75.7083 122.917 79.1666 122.917C82.6249 122.917 85.4166 120.125 85.4166 116.667C85.4166 116 85.3333 115.375 85.1249 114.792L99.2083 91.3333C93.7083 90.0416 89.5833 85.0833 89.5833 79.1666C89.5833 72.2916 95.2083 66.6666 102.083 66.6666ZM120.833 104.167C118.167 104.167 115.708 105 113.667 106.417L100.958 85.2916C98.0416 84.7916 95.8333 82.2499 95.8333 79.1666C95.8333 75.7083 98.6249 72.9166 102.083 72.9166C105.542 72.9166 108.333 75.7083 108.333 79.1666C108.333 79.7916 108.25 80.3749 108.083 80.9583L117.208 96.1666C118.375 95.9583 119.583 95.8333 120.833 95.8333C132.333 95.8333 141.667 105.167 141.667 116.667C141.667 128.167 132.333 137.5 120.833 137.5C113.125 137.5 106.375 133.292 102.792 127.083H113.917C115.917 128.417 118.292 129.167 120.833 129.167C127.708 129.167 133.333 123.542 133.333 116.667C133.333 109.792 127.708 104.167 120.833 104.167Z" fill="white"/>
</svg>
