<svg width="200" height="200" viewBox="0 0 200 200" fill="none" xmlns="http://www.w3.org/2000/svg">
<circle cx="100" cy="100" r="100" fill="#3E64FF"/>
<path d="M89.5833 108.333V104.167H95.8333V106.25H104.167V102.083H93.75C91.4583 102.083 89.5833 100.208 89.5833 97.9167V91.6667C89.5833 89.375 91.4583 87.5 93.75 87.5H106.25C108.542 87.5 110.417 89.375 110.417 91.6667V95.8333H104.167V93.75H95.8333V97.9167H106.25C108.542 97.9167 110.417 99.7917 110.417 102.083V108.333C110.417 110.625 108.542 112.5 106.25 112.5H93.75C91.4583 112.5 89.5833 110.625 89.5833 108.333ZM120.833 112.5H133.333C135.625 112.5 137.5 110.625 137.5 108.333V102.083C137.5 99.7917 135.625 97.9167 133.333 97.9167H122.917V93.75H131.25V95.8333H137.5V91.6667C137.5 89.375 135.625 87.5 133.333 87.5H120.833C118.542 87.5 116.667 89.375 116.667 91.6667V97.9167C116.667 100.208 118.542 102.083 120.833 102.083H131.25V106.25H122.917V104.167H116.667V108.333C116.667 110.625 118.542 112.5 120.833 112.5ZM83.3333 91.6667C83.3333 89.375 81.4583 87.5 79.1667 87.5H66.6667C64.375 87.5 62.5 89.375 62.5 91.6667V108.333C62.5 110.625 64.375 112.5 66.6667 112.5H79.1667C81.4583 112.5 83.3333 110.625 83.3333 108.333V104.167H77.0833V106.25H68.75V93.75H77.0833V95.8333H83.3333V91.6667Z" fill="white"/>
</svg>
