<svg width="200" height="200" viewBox="0 0 200 200" fill="none" xmlns="http://www.w3.org/2000/svg">
<circle cx="100" cy="100" r="100" fill="#3E64FF"/>
<path d="M145.833 95.8749L125 95.8333C122.708 95.8333 120.833 97.7083 120.833 99.9999V137.5C120.833 139.792 122.708 141.667 125 141.667H145.833C148.125 141.667 150 139.792 150 137.5V99.9999C150 97.7083 148.125 95.8749 145.833 95.8749ZM145.833 133.333H125V104.167H145.833V133.333ZM133.333 58.3333H58.3333C53.7083 58.3333 50 62.0416 50 66.6666V116.667C50 121.25 53.7083 125 58.3333 125H87.5V133.333H79.1667V141.667H112.5V133.333H104.167V125H112.5V116.667H58.3333V66.6666H133.333V87.4999H141.667V66.6666C141.667 62.0416 137.917 58.3333 133.333 58.3333ZM99.875 87.4999L95.8333 74.9999L91.7917 87.4999H79.1667L89.4583 94.8333L85.5417 106.958L95.8333 99.4583L106.125 106.958L102.208 94.8333L112.5 87.4999H99.875Z" fill="white"/>
</svg>
